# xmcd
#
# Track frame offsets:
#	150
#	15143
#	30686
#	53472
#	66933
#	78922
#	99088
#	118770
#	138527
#	160940
#	182148
#	201084
#	219506
#	237698
#
# Disc length: 3325 seconds
# Revision: 0
# Processed by: cddbd v1.5.2PL0 Copyright (c) Steve Scherf et al.
# Submitted via: dBpowerAMP V12.0
#
DISCID=b60cfb0e
DTITLE=Catfish Keith - Put on a Buzz
DYEAR=2011
DGENRE=Blues
TTITLE0=On A Monday
TTITLE1=Sigh Of The Whippoorwill
TTITLE2=Grasshoppers In My Pillow
TTITLE3=Willie The Chimney Sweeper
TTITLE4=Paying For It Now
TTITLE5=Put On A Buzz
TTITLE6=Aberdeen, Mississippi Blues
TTITLE7=Xima Jo Road
TTITLE8=He Rose From The Dead
TTITLE9=Nobody's Business
TTITLE10=Lost Lover Blues
TTITLE11=Hawaiian Cowboy
TTITLE12=Can't Be Undone
TTITLE13=Reefer Head
EXTD=
EXTT0=
EXTT1=
EXTT2=
EXTT3=
EXTT4=
EXTT5=
EXTT6=
EXTT7=
EXTT8=
EXTT9=
EXTT10=
EXTT11=
EXTT12=
EXTT13=
PLAYORDER=
